M48
;DRILL file {KiCad (5.0.0)} date 12/16/18 14:13:59
;FORMAT={3:3/ absolute / metric / suppress leading zeros}
FMAT,2
METRIC,TZ
T1C0.600
T2C0.700
T3C0.800
T4C0.900
T5C1.000
T6C1.100
T7C1.300
T8C1.500
T9C1.700
T10C9.600
T11C3.200
%
G90
G05
M71
T1
X11220Y98000
X13760Y98000
X16300Y98000
X76300Y15400
X77800Y15400
X79300Y15400
X80800Y15400
X82300Y15400
X83800Y15400
X85300Y15400
X86800Y15400
X88300Y15400
T3
X10300Y75900
X10300Y73900
X10300Y71900
X10300Y69900
X10300Y67900
X10300Y65900
X63750Y79650
X63750Y72030
X66290Y79650
X66290Y72030
X68830Y79650
X68830Y72030
X32900Y12600
X32900Y9100
X10300Y90100
X10300Y88100
X10300Y86100
X10300Y84100
X42100Y50600
X42100Y47100
X33200Y50600
X33200Y47100
T4
X70910Y68400
X73450Y68400
X24300Y57340
X24300Y54800
X24300Y62640
X24300Y60100
T5
X12800Y64800
X13000Y76400
X13000Y73900
X13000Y69900
X13000Y67400
X13100Y82500
X13200Y86100
X13218Y88300
X15800Y88300
X16700Y66200
X17400Y75200
X17847Y64323
X18900Y79700
X20050Y51700
X21000Y86000
X21180Y79650
X21200Y44600
X21200Y47700
X21208Y81850
X21300Y90850
X21300Y76150
X22600Y70300
X22641Y73655
X23800Y66800
X24725Y82700
X24900Y73500
X25000Y71200
X26012Y68182
X27671Y66737
X28650Y86001
X31300Y92600
X31300Y88650
X32650Y85533
X33800Y72400
X34400Y82700
X36450Y79300
X38800Y82700
X40100Y74800
X42900Y82600
T6
X8200Y91600
X8200Y82600
X8200Y77400
X8200Y64400
X35700Y88600
X40700Y88600
T7
X96100Y89900
X96100Y83400
X100600Y89900
X100600Y83400
X80100Y78950
X80100Y72450
X84600Y78950
X84600Y72450
X96100Y78950
X96100Y72450
X100600Y78950
X100600Y72450
X80100Y89900
X80100Y83400
X84600Y89900
X84600Y83400
X64100Y89900
X64100Y83400
X68600Y89900
X68600Y83400
T9
X7620Y37400
X12700Y37400
X34620Y37400
X39700Y37400
X35620Y126900
X40700Y126900
X21120Y37400
X26200Y37400
T10
X72100Y52100
T11
X100100Y5100
X64100Y5100
X6100Y98100
X100100Y98100
X64100Y98100
X42100Y5100
X42100Y98100
X6100Y5100
T2
X73850Y17350G85X74750Y17350
G05
X89850Y17350G85X90750Y17350
G05
T8
X60970Y52950G85X60970Y51250
G05
T0
M30
